<svg
   version="1.1"
   width="480"
   height="170.77"
   viewBox="0 0 480 170.77"
   id="svg2"
   xmlns="http://www.w3.org/2000/svg">
  <defs>
    <mask id="cutout" maskUnits="userSpaceOnUse">
      <rect width="100%" height="100%" fill="white" />
      
      <g transform="translate(-1.4809,-96.34413)">
        <path
           d="M 41.41744,230.38622 67.74657,123.66757 h 34.4304 l 26.48492,106.71865 h -17.4489 l -5.76436,-22.90167 H 64.47491 l -5.76436,22.90167 z m 39.72738,-92.22986 -13.24246,54.06039 h 34.11882 L 88.93451,138.15636 Z m 50.94457,14.33299 h 17.76048 l 14.95619,63.40803 h 4.9854 l 15.57936,-63.40803 h 17.29311 l -20.25319,77.89683 h -30.22398 z m 83.81686,77.89687 v -77.89683 h 16.98152 v 77.89683 z m 0,-91.13929 v -17.91627 h 16.98152 v 17.91627 z m 78.3641,92.85305 c -16.20254,0 -27.52355,-4.36223 -33.96303,-13.08667 -6.33561,-8.72444 -9.50342,-22.48623 -9.50342,-41.28532 0,-18.90296 3.21973,-32.9244 9.65921,-42.06428 6.54333,-9.13988 17.81242,-13.70984 33.80722,-13.70984 15.99482,0 27.21198,4.56996 33.65144,13.70984 6.43948,9.03604 9.65921,23.00553 9.65921,41.90849 0,12.4635 -1.35021,22.53815 -4.05063,30.22398 -2.59656,7.68583 -6.90686,13.55406 -12.93088,17.60469 l 13.08667,21.03215 -16.04675,7.47809 -13.86563,-22.74588 c -1.97338,0.62317 -5.14119,0.93477 -9.50342,0.93477 z m -20.25319,-24.14806 c 3.53133,6.02402 10.28238,9.03604 20.25319,9.03604 9.97079,0 16.66992,-2.96008 20.09738,-8.88023 3.53133,-6.02402 5.29698,-16.15061 5.29698,-30.37976 0,-14.22917 -1.8176,-24.56346 -5.45277,-31.00294 -3.53133,-6.43948 -10.17852,-9.65921 -19.94159,-9.65921 -9.76308,0 -16.46219,3.21973 -20.09738,9.65921 -3.63519,6.43948 -5.45277,16.72186 -5.45277,30.84715 0,14.12531 1.76565,24.25188 5.29698,30.37976 z m 123.54442,-40.9737 h -21.49951 v 34.27461 c 0,6.33561 0.46738,10.54204 1.40215,12.61929 0.93477,2.07725 3.3236,3.11586 7.16652,3.11586 l 12.77507,-0.46738 0.77898,13.55406 c -6.95879,1.35021 -12.25577,2.02531 -15.89096,2.02531 -8.82831,0 -14.90425,-2.02531 -18.22784,-6.07594 -3.21973,-4.05063 -4.82961,-11.68452 -4.82961,-22.90167 v -36.14413 h -9.97079 v -14.48882 h 9.97079 v -22.59007 h 16.82573 v 22.59007 h 21.49951 z m 14.80036,63.408 V 120.0843 h 16.9815 v 110.30192 z"
           fill="black" />
      </g>
    </mask>
  </defs>

  <path
     d="M 0,27.32344 27.32344,0 H 480 v 143.44803 l -27.32344,27.32344 H 0 Z"
     fill="#2cde85"
     mask="url(#cutout)" />
</svg>
