<?xml version="1.0" encoding="UTF-8" standalone="no"?>
<svg
   version="1.1"
   width="204.8"
   height="204.8"
   viewBox="0 0 204.8 204.8"
   id="svg7"
   sodipodi:docname="icon-shadowed.svg"
   inkscape:version="1.4.4 (dcaf3e7d9e, 2026-05-05)"
   xmlns:inkscape="http://www.inkscape.org/namespaces/inkscape"
   xmlns:sodipodi="http://sodipodi.sourceforge.net/DTD/sodipodi-0.dtd"
   xmlns:xlink="http://www.w3.org/1999/xlink"
   xmlns="http://www.w3.org/2000/svg"
   xmlns:svg="http://www.w3.org/2000/svg">
  <sodipodi:namedview
     id="namedview7"
     pagecolor="#505050"
     bordercolor="#eeeeee"
     borderopacity="1"
     inkscape:showpageshadow="0"
     inkscape:pageopacity="0"
     inkscape:pagecheckerboard="0"
     inkscape:deskcolor="#505050"
     inkscape:zoom="1.7912292"
     inkscape:cx="78.996032"
     inkscape:cy="145.43086"
     inkscape:window-width="1536"
     inkscape:window-height="893"
     inkscape:window-x="0"
     inkscape:window-y="0"
     inkscape:window-maximized="1"
     inkscape:current-layer="svg7" />
  <defs
     id="defs4">
    <linearGradient
       x1="176"
       y1="116"
       x2="304"
       y2="244"
       gradientUnits="userSpaceOnUse"
       id="color-1">
      <stop
         offset="0"
         stop-color="#ff00ff"
         id="stop1" />
      <stop
         offset="1"
         stop-color="#00ffff"
         id="stop2" />
    </linearGradient>
    <linearGradient
       x1="176"
       y1="244"
       x2="304"
       y2="116"
       gradientUnits="userSpaceOnUse"
       id="color-2">
      <stop
         offset="0"
         stop-color="#ffff00"
         stop-opacity="0.74902"
         id="stop3" />
      <stop
         offset="1"
         stop-color="#ffff00"
         stop-opacity="0"
         id="stop4" />
    </linearGradient>
    <linearGradient
       inkscape:collect="always"
       xlink:href="#color-1"
       id="linearGradient7"
       gradientUnits="userSpaceOnUse"
       x1="176"
       y1="116"
       x2="304"
       y2="244" />
    <linearGradient
       inkscape:collect="always"
       xlink:href="#color-2"
       id="linearGradient8"
       gradientUnits="userSpaceOnUse"
       x1="176"
       y1="244"
       x2="304"
       y2="116" />
    <linearGradient
       inkscape:collect="always"
       xlink:href="#color-1"
       id="linearGradient7-3"
       gradientUnits="userSpaceOnUse"
       x1="176"
       y1="116"
       x2="304"
       y2="244" />
    <linearGradient
       inkscape:collect="always"
       xlink:href="#color-2"
       id="linearGradient8-5"
       gradientUnits="userSpaceOnUse"
       x1="176"
       y1="244"
       x2="304"
       y2="116" />
    <filter
       inkscape:collect="always"
       style="color-interpolation-filters:sRGB"
       id="filter1"
       x="-0.3"
       y="-0.3"
       width="1.6"
       height="1.6">
      <feGaussianBlur
         inkscape:collect="always"
         stdDeviation="16"
         id="feGaussianBlur1" />
    </filter>
  </defs>
  <g
     id="g7-5"
     transform="translate(-137.6,-77.599998)"
     style="mix-blend-mode:normal;filter:url(#filter1)">
    <g
       fill-rule="evenodd"
       stroke="none"
       stroke-miterlimit="10"
       id="g6-6">
      <g
         id="g5-2">
        <path
           d="M 276,244 H 204 V 116 h 72 z m -4,0 h -63.99999 v -24 c 0,-2.69 1.31,-4 4,-4 h 56 c 2.69,0 4,1.31 4,4 z m -4,-96 c 2.69,0 4,1.31 4,4 v 56 c 0,2.69 -1.31,4 -4,4 h -56 c -2.69,0 -4,-1.31 -4,-4 v -56 c 0,-2.69 1.31,-4 4,-4 z m 4.00001,-8 c 0,2.69 -1.31,4 -4,4 h -56 c -2.69,0 -4,-1.31 -4,-4 V 116 H 272 Z M 304,116 v 128 h -4 V 116 Z m -124,0 v 128 h -4 V 116 Z m 116,128 h -16 v -7.99999 c 0,-2.69 1.31,-4 4,-4 h 7.99999 c 2.69,0 4,1.31 4,4 z m -3.99999,-32 c 2.69,0 4,1.31 4,4 v 7.99999 c 0,2.69 -1.31,4 -4,4 h -7.99999 c -2.69,0 -4,-1.31 -4,-4 V 216 c 0,-2.69 1.31,-4 4,-4 z M 292,192 c 2.69,0 4,1.31 4,4 v 7.99999 c 0,2.69 -1.31,4 -4,4 h -7.99999 c -2.69,0 -4,-1.31 -4,-4 V 196 c 0,-2.69 1.31,-4 4,-4 z m 10e-6,-20 c 2.69,0 4,1.31 4,4 v 7.99999 c 0,2.69 -1.31,4 -4,4 h -7.99999 c -2.69,0 -4,-1.31 -4,-4 V 176 c 0,-2.69 1.31,-4 4,-4 z M 292,152 c 2.69,0 4,1.31 4,4 v 7.99999 c 0,2.69 -1.31,4 -4,4 h -7.99999 c -2.69,0 -4,-1.31 -4,-4 V 156 c 0,-2.69 1.31,-4 4,-4 z m 10e-6,-20 c 2.69,0 4,1.31 4,4 v 7.99999 c 0,2.69 -1.31,4 -4,4 h -7.99999 c -2.69,0 -4,-1.31 -4,-4 V 136 c 0,-2.69 1.31,-4 4,-4 z M 296,124 c 0,2.69 -1.31,4 -4,4 h -7.99999 c -2.69,0 -4,-1.31 -4,-4 v -7.99999 h 16 z m -96,120 h -16 v -7.99999 c 0,-2.69 1.31,-4 4,-4 h 7.99999 c 2.69,0 4,1.31 4,4 z m -4,-31.99999 c 2.69,0 4,1.31 4,4 V 224 c 0,2.69 -1.31,4 -4,4 h -7.99999 c -2.69,0 -4,-1.31 -4,-4 v -7.99999 c 0,-2.69 1.31,-4 4,-4 z M 196,192 c 2.69,0 4,1.31 4,4 v 7.99999 c 0,2.69 -1.31,4 -4,4 h -7.99999 c -2.69,0 -4,-1.31 -4,-4 V 196 c 0,-2.69 1.31,-4 4,-4 z m 1e-5,-20 c 2.69,0 4,1.31 4,4 v 7.99999 c 0,2.69 -1.31,4 -4,4 h -7.99999 c -2.69,0 -4,-1.31 -4,-4 V 176 c 0,-2.69 1.31,-4 4,-4 z M 196,152 c 2.69,0 4,1.31 4,4 v 7.99999 c 0,2.69 -1.31,4 -4,4 h -7.99999 c -2.69,0 -4,-1.31 -4,-4 V 156 c 0,-2.69 1.31,-4 4,-4 z m 1e-5,-20 c 2.69,0 4,1.31 4,4 v 7.99999 c 0,2.69 -1.31,4 -4,4 h -7.99999 c -2.69,0 -4,-1.31 -4,-4 V 136 c 0,-2.69 1.31,-4 4,-4 z M 200,124 c 0,2.69 -1.31,4 -4,4 h -7.99999 c -2.69,0 -4,-1.31 -4,-4 v -7.99999 h 16 z"
           fill="url(#color-1)"
           id="path4-9"
           style="fill:url(#linearGradient7)" />
        <path
           d="m 204,116 h 72 v 128 h -72 z m 4,0 h 63.99999 v 24 c 0,2.69 -1.31,4 -4,4 h -56 c -2.69,0 -4,-1.31 -4,-4 z m 4,96 c -2.69,0 -4,-1.31 -4,-4 v -56 c 0,-2.69 1.31,-4 4,-4 h 56 c 2.69,0 4,1.31 4,4 v 56 c 0,2.69 -1.31,4 -4,4 z m -4.00001,8 c 0,-2.69 1.31,-4 4,-4 h 56 c 2.69,0 4,1.31 4,4 v 24 H 208 Z M 176,244 V 116 h 4 v 128 z m 124,0 V 116 h 4 V 244 Z M 184,116 h 16 v 7.99999 c 0,2.69 -1.31,4 -4,4 h -7.99999 c -2.69,0 -4,-1.31 -4,-4 z m 3.99999,32 c -2.69,0 -4,-1.31 -4,-4 v -7.99999 c 0,-2.69 1.31,-4 4,-4 h 7.99999 c 2.69,0 4,1.31 4,4 V 144 c 0,2.69 -1.31,4 -4,4 z m 1e-5,20 c -2.69,0 -4,-1.31 -4,-4 v -7.99999 c 0,-2.69 1.31,-4 4,-4 h 7.99999 c 2.69,0 4,1.31 4,4 V 164 c 0,2.69 -1.31,4 -4,4 z m -1e-5,20 c -2.69,0 -4,-1.31 -4,-4 v -7.99999 c 0,-2.69 1.31,-4 4,-4 h 7.99999 c 2.69,0 4,1.31 4,4 V 184 c 0,2.69 -1.31,4 -4,4 z m 1e-5,20 c -2.69,0 -4,-1.31 -4,-4 v -7.99999 c 0,-2.69 1.31,-4 4,-4 h 7.99999 c 2.69,0 4,1.31 4,4 V 204 c 0,2.69 -1.31,4 -4,4 z m -1e-5,20 c -2.69,0 -4,-1.31 -4,-4 v -7.99999 c 0,-2.69 1.31,-4 4,-4 h 7.99999 c 2.69,0 4,1.31 4,4 V 224 c 0,2.69 -1.31,4 -4,4 z M 184,236 c 0,-2.69 1.31,-4 4,-4 h 7.99999 c 2.69,0 4,1.31 4,4 v 7.99999 h -16 z m 96,-120 h 16 v 7.99999 c 0,2.69 -1.31,4 -4,4 h -7.99999 c -2.69,0 -4,-1.31 -4,-4 z m 4,31.99999 c -2.69,0 -4,-1.31 -4,-4 V 136 c 0,-2.69 1.31,-4 4,-4 h 7.99999 c 2.69,0 4,1.31 4,4 v 7.99999 c 0,2.69 -1.31,4 -4,4 z M 284,168 c -2.69,0 -4,-1.31 -4,-4 v -7.99999 c 0,-2.69 1.31,-4 4,-4 h 7.99999 c 2.69,0 4,1.31 4,4 V 164 c 0,2.69 -1.31,4 -4,4 z m -10e-6,20 c -2.69,0 -4,-1.31 -4,-4 v -7.99999 c 0,-2.69 1.31,-4 4,-4 h 7.99999 c 2.69,0 4,1.31 4,4 V 184 c 0,2.69 -1.31,4 -4,4 z M 284,208 c -2.69,0 -4,-1.31 -4,-4 v -7.99999 c 0,-2.69 1.31,-4 4,-4 h 7.99999 c 2.69,0 4,1.31 4,4 V 204 c 0,2.69 -1.31,4 -4,4 z m -10e-6,20 c -2.69,0 -4,-1.31 -4,-4 v -7.99999 c 0,-2.69 1.31,-4 4,-4 h 7.99999 c 2.69,0 4,1.31 4,4 V 224 c 0,2.69 -1.31,4 -4,4 z M 280,236 c 0,-2.69 1.31,-4 4,-4 h 7.99999 c 2.69,0 4,1.31 4,4 v 7.99999 h -16 z"
           fill="url(#color-2)"
           id="path5-1"
           style="fill:url(#linearGradient8)" />
      </g>
    </g>
  </g>
  <g
     id="g7-5-2"
     transform="translate(-137.6,-77.599998)">
    <g
       fill-rule="evenodd"
       stroke="none"
       stroke-miterlimit="10"
       id="g6-6-9">
      <g
         id="g5-2-1">
        <path
           d="M 276,244 H 204 V 116 h 72 z m -4,0 h -63.99999 v -24 c 0,-2.69 1.31,-4 4,-4 h 56 c 2.69,0 4,1.31 4,4 z m -4,-96 c 2.69,0 4,1.31 4,4 v 56 c 0,2.69 -1.31,4 -4,4 h -56 c -2.69,0 -4,-1.31 -4,-4 v -56 c 0,-2.69 1.31,-4 4,-4 z m 4.00001,-8 c 0,2.69 -1.31,4 -4,4 h -56 c -2.69,0 -4,-1.31 -4,-4 V 116 H 272 Z M 304,116 v 128 h -4 V 116 Z m -124,0 v 128 h -4 V 116 Z m 116,128 h -16 v -7.99999 c 0,-2.69 1.31,-4 4,-4 h 7.99999 c 2.69,0 4,1.31 4,4 z m -3.99999,-32 c 2.69,0 4,1.31 4,4 v 7.99999 c 0,2.69 -1.31,4 -4,4 h -7.99999 c -2.69,0 -4,-1.31 -4,-4 V 216 c 0,-2.69 1.31,-4 4,-4 z M 292,192 c 2.69,0 4,1.31 4,4 v 7.99999 c 0,2.69 -1.31,4 -4,4 h -7.99999 c -2.69,0 -4,-1.31 -4,-4 V 196 c 0,-2.69 1.31,-4 4,-4 z m 10e-6,-20 c 2.69,0 4,1.31 4,4 v 7.99999 c 0,2.69 -1.31,4 -4,4 h -7.99999 c -2.69,0 -4,-1.31 -4,-4 V 176 c 0,-2.69 1.31,-4 4,-4 z M 292,152 c 2.69,0 4,1.31 4,4 v 7.99999 c 0,2.69 -1.31,4 -4,4 h -7.99999 c -2.69,0 -4,-1.31 -4,-4 V 156 c 0,-2.69 1.31,-4 4,-4 z m 10e-6,-20 c 2.69,0 4,1.31 4,4 v 7.99999 c 0,2.69 -1.31,4 -4,4 h -7.99999 c -2.69,0 -4,-1.31 -4,-4 V 136 c 0,-2.69 1.31,-4 4,-4 z M 296,124 c 0,2.69 -1.31,4 -4,4 h -7.99999 c -2.69,0 -4,-1.31 -4,-4 v -7.99999 h 16 z m -96,120 h -16 v -7.99999 c 0,-2.69 1.31,-4 4,-4 h 7.99999 c 2.69,0 4,1.31 4,4 z m -4,-31.99999 c 2.69,0 4,1.31 4,4 V 224 c 0,2.69 -1.31,4 -4,4 h -7.99999 c -2.69,0 -4,-1.31 -4,-4 v -7.99999 c 0,-2.69 1.31,-4 4,-4 z M 196,192 c 2.69,0 4,1.31 4,4 v 7.99999 c 0,2.69 -1.31,4 -4,4 h -7.99999 c -2.69,0 -4,-1.31 -4,-4 V 196 c 0,-2.69 1.31,-4 4,-4 z m 1e-5,-20 c 2.69,0 4,1.31 4,4 v 7.99999 c 0,2.69 -1.31,4 -4,4 h -7.99999 c -2.69,0 -4,-1.31 -4,-4 V 176 c 0,-2.69 1.31,-4 4,-4 z M 196,152 c 2.69,0 4,1.31 4,4 v 7.99999 c 0,2.69 -1.31,4 -4,4 h -7.99999 c -2.69,0 -4,-1.31 -4,-4 V 156 c 0,-2.69 1.31,-4 4,-4 z m 1e-5,-20 c 2.69,0 4,1.31 4,4 v 7.99999 c 0,2.69 -1.31,4 -4,4 h -7.99999 c -2.69,0 -4,-1.31 -4,-4 V 136 c 0,-2.69 1.31,-4 4,-4 z M 200,124 c 0,2.69 -1.31,4 -4,4 h -7.99999 c -2.69,0 -4,-1.31 -4,-4 v -7.99999 h 16 z"
           fill="url(#color-1)"
           id="path4-9-2"
           style="fill:url(#linearGradient7-3)" />
        <path
           d="m 204,116 h 72 v 128 h -72 z m 4,0 h 63.99999 v 24 c 0,2.69 -1.31,4 -4,4 h -56 c -2.69,0 -4,-1.31 -4,-4 z m 4,96 c -2.69,0 -4,-1.31 -4,-4 v -56 c 0,-2.69 1.31,-4 4,-4 h 56 c 2.69,0 4,1.31 4,4 v 56 c 0,2.69 -1.31,4 -4,4 z m -4.00001,8 c 0,-2.69 1.31,-4 4,-4 h 56 c 2.69,0 4,1.31 4,4 v 24 H 208 Z M 176,244 V 116 h 4 v 128 z m 124,0 V 116 h 4 V 244 Z M 184,116 h 16 v 7.99999 c 0,2.69 -1.31,4 -4,4 h -7.99999 c -2.69,0 -4,-1.31 -4,-4 z m 3.99999,32 c -2.69,0 -4,-1.31 -4,-4 v -7.99999 c 0,-2.69 1.31,-4 4,-4 h 7.99999 c 2.69,0 4,1.31 4,4 V 144 c 0,2.69 -1.31,4 -4,4 z m 1e-5,20 c -2.69,0 -4,-1.31 -4,-4 v -7.99999 c 0,-2.69 1.31,-4 4,-4 h 7.99999 c 2.69,0 4,1.31 4,4 V 164 c 0,2.69 -1.31,4 -4,4 z m -1e-5,20 c -2.69,0 -4,-1.31 -4,-4 v -7.99999 c 0,-2.69 1.31,-4 4,-4 h 7.99999 c 2.69,0 4,1.31 4,4 V 184 c 0,2.69 -1.31,4 -4,4 z m 1e-5,20 c -2.69,0 -4,-1.31 -4,-4 v -7.99999 c 0,-2.69 1.31,-4 4,-4 h 7.99999 c 2.69,0 4,1.31 4,4 V 204 c 0,2.69 -1.31,4 -4,4 z m -1e-5,20 c -2.69,0 -4,-1.31 -4,-4 v -7.99999 c 0,-2.69 1.31,-4 4,-4 h 7.99999 c 2.69,0 4,1.31 4,4 V 224 c 0,2.69 -1.31,4 -4,4 z M 184,236 c 0,-2.69 1.31,-4 4,-4 h 7.99999 c 2.69,0 4,1.31 4,4 v 7.99999 h -16 z m 96,-120 h 16 v 7.99999 c 0,2.69 -1.31,4 -4,4 h -7.99999 c -2.69,0 -4,-1.31 -4,-4 z m 4,31.99999 c -2.69,0 -4,-1.31 -4,-4 V 136 c 0,-2.69 1.31,-4 4,-4 h 7.99999 c 2.69,0 4,1.31 4,4 v 7.99999 c 0,2.69 -1.31,4 -4,4 z M 284,168 c -2.69,0 -4,-1.31 -4,-4 v -7.99999 c 0,-2.69 1.31,-4 4,-4 h 7.99999 c 2.69,0 4,1.31 4,4 V 164 c 0,2.69 -1.31,4 -4,4 z m -10e-6,20 c -2.69,0 -4,-1.31 -4,-4 v -7.99999 c 0,-2.69 1.31,-4 4,-4 h 7.99999 c 2.69,0 4,1.31 4,4 V 184 c 0,2.69 -1.31,4 -4,4 z M 284,208 c -2.69,0 -4,-1.31 -4,-4 v -7.99999 c 0,-2.69 1.31,-4 4,-4 h 7.99999 c 2.69,0 4,1.31 4,4 V 204 c 0,2.69 -1.31,4 -4,4 z m -10e-6,20 c -2.69,0 -4,-1.31 -4,-4 v -7.99999 c 0,-2.69 1.31,-4 4,-4 h 7.99999 c 2.69,0 4,1.31 4,4 V 224 c 0,2.69 -1.31,4 -4,4 z M 280,236 c 0,-2.69 1.31,-4 4,-4 h 7.99999 c 2.69,0 4,1.31 4,4 v 7.99999 h -16 z"
           fill="url(#color-2)"
           id="path5-1-7"
           style="fill:url(#linearGradient8-5)" />
      </g>
    </g>
  </g>
</svg>
